
<svg xmlns="http://www.w3.org/2000/svg" version="1.1" xmlns:xlink="http://www.w3.org/1999/xlink" preserveAspectRatio="none" x="0px" y="0px" width="500px" height="500px" viewBox="0 0 500 500">
<defs/>

<g id="Layer_2">
<g>
<g>
<g>
<path fill="#1DA1F2" stroke="none" d="
M 498.45 134.95
Q 500.05 132.15 500 130.15 499.85 128.25 498.45 127.9 494.95 127.15 487.7 128.15 482.45 128.85 472.95 130.85 464.2 132.7 448.55 130.75 432.2 128.7 423.25 124.15 404.9 49.15 328.75 51.3 298.45 52.1 271.05 61.35 262.25 63.45 253.4 62.4 244.7 61.3 235.05 57 239.15 72.55 251 80.6 244.1 80.35 237 78.7 229.6 76.9 223 73.8 227.05 92.15 243.9 99.2 226.35 127.05 230.55 159.65 234.8 192.4 260.95 229.45 251.85 237.2 225.3 241.05 196 245.25 162.4 241.7 122.75 237.4 87.95 222.95 47.1 205.9 17.8 176.35 10.95 239.35 41.45 266.2 26.5 261.85 0 247.25 13.1 329.65 91 345.6 60.15 350.25 30.95 337.85 58.05 405.25 162.6 439.7 333.9 475 405.8 373.5 452.15 294.4 380.6 209.3 394.35 204.85 402.7 198.1
L 450.7 198.1
Q 469.15 193.5 466.95 187.6 455.35 178.85 439.85 177.9
L 451.5 188.4
Q 421.6 186.25 398.85 164.35 431.25 170.3 460 161.55 473.45 157.45 483.35 150.65 493.4 143.7 498.45 134.95
M 365.5 113.8
Q 370.5 113.8 374 119.05 377.5 124.25 377.5 131.7 377.5 139.1 374 144.35 370.5 149.55 365.5 149.55 360.5 149.55 357 144.35 353.5 139.1 353.5 131.7 353.5 124.25 357 119.05 360.5 113.8 365.5 113.8
M 306.65 288.35
Q 306.3 346.85 255.15 368.5 195.6 394.6 118.1 373.5 269 386.15 306.65 288.35 Z"/>
</g>
</g>
</g>
</g>
</svg>
